# xmcd
#
# Track frame offsets:
#	150
#	12744
#	24145
#	35644
#	47809
#	58791
#	72790
#	85784
#	98988
#
# Disc length: 1525 seconds
#
# Revision: 0
# Processed by: cddbd v1.5.2PL0 Copyright (c) Steve Scherf et al.
# Submitted via: audiograbber 1.83.01
#
DISCID=7105f309
DTITLE=George Jones - Blue Side Of Lonesome
DYEAR=1999
DGENRE=Country
TTITLE0=Blue Side Of Lonesome
TTITLE1=Gonna Come Get You
TTITLE2=Apartment No.9
TTITLE3=Half Of Me Is Gone
TTITLE4=Gotta Talk To Your Heart
TTITLE5=That Heart Belongs To Me
TTITLE6=I Cried Myself Awake
TTITLE7=Mama, Take Me Home
TTITLE8=Getting Over The Storm
EXTD=
EXTT0=
EXTT1=
EXTT2=
EXTT3=
EXTT4=
EXTT5=
EXTT6=
EXTT7=
EXTT8=
PLAYORDER=
